<svg width="28" height="28" viewBox="0 0 28 28" fill="none" xmlns="http://www.w3.org/2000/svg">
<ellipse cx="14" cy="14" rx="14" ry="14" transform="matrix(0 1 1 0 0 0)" fill="white"/>
<path d="M14.4733 14.9333C14.4113 14.9958 14.3376 15.0454 14.2563 15.0793C14.1751 15.1131 14.088 15.1305 14 15.1305C13.912 15.1305 13.8248 15.1131 13.7436 15.0793C13.6623 15.0454 13.5886 14.9958 13.5266 14.9333L10.4733 11.8733C10.4113 11.8109 10.3376 11.7613 10.2563 11.7274C10.1751 11.6936 10.088 11.6761 9.99996 11.6761C9.91195 11.6761 9.82481 11.6936 9.74357 11.7274C9.66234 11.7613 9.5886 11.8109 9.52663 11.8733C9.40246 11.9983 9.33276 12.1672 9.33276 12.3433C9.33276 12.5195 9.40246 12.6884 9.52663 12.8133L12.5866 15.8733C12.9616 16.2479 13.47 16.4583 14 16.4583C14.53 16.4583 15.0383 16.2479 15.4133 15.8733L18.4733 12.8133C18.5965 12.6892 18.6659 12.5216 18.6666 12.3467C18.6671 12.2589 18.6503 12.172 18.6172 12.0907C18.584 12.0095 18.5351 11.9356 18.4733 11.8733C18.4113 11.8109 18.3376 11.7613 18.2564 11.7274C18.1751 11.6936 18.088 11.6761 18 11.6761C17.912 11.6761 17.8248 11.6936 17.7436 11.7274C17.6623 11.7613 17.5886 11.8109 17.5266 11.8733L14.4733 14.9333Z" fill="#FD9222"/>
</svg>
